<svg width="331.1" height="71.201" viewBox="6 -4.201364534389601 337.1 77.2013645343896" xmlns="http://www.w3.org/2000/svg"><g id="svgGroup" stroke-linecap="round" fill-rule="evenodd" font-size="9pt" stroke="#000" stroke-width="0.25mm" fill="#000" style="stroke:#000;stroke-width:0.25mm;fill:#000"><path d="M 156.2 70 L 147.2 70 L 147.2 18 L 155.9 18 L 155.9 26.7 Q 158.7 22.5 163 19.65 A 17.205 17.205 0 0 1 172.202 16.809 A 20.858 20.858 0 0 1 172.8 16.8 A 20.994 20.994 0 0 1 177.217 17.24 Q 180.203 17.882 182.485 19.463 A 13.128 13.128 0 0 1 182.95 19.8 A 15.751 15.751 0 0 1 188.398 27.489 A 19.154 19.154 0 0 1 188.5 27.8 Q 191.6 23.2 195.85 20 A 15.669 15.669 0 0 1 202.641 17.116 A 21.446 21.446 0 0 1 206.4 16.8 A 21.437 21.437 0 0 1 211.288 17.322 Q 214.874 18.162 217.363 20.351 A 12.994 12.994 0 0 1 219.05 22.15 A 18.992 18.992 0 0 1 222.461 29.422 Q 223.2 32.472 223.2 36.1 L 223.2 70 L 214.2 70 L 214.2 36.8 A 19.042 19.042 0 0 0 213.863 33.111 Q 213.427 30.905 212.428 29.161 A 10.982 10.982 0 0 0 211.7 28.05 A 7.974 7.974 0 0 0 205.887 24.754 A 10.678 10.678 0 0 0 204.8 24.7 A 11.926 11.926 0 0 0 198.041 26.827 A 15.996 15.996 0 0 0 196.45 28.05 Q 192.6 31.4 189.7 35.9 L 189.7 70 L 180.7 70 L 180.7 36.8 A 19.042 19.042 0 0 0 180.363 33.111 Q 179.927 30.905 178.928 29.161 A 10.982 10.982 0 0 0 178.2 28.05 A 7.974 7.974 0 0 0 172.387 24.754 A 10.678 10.678 0 0 0 171.3 24.7 A 12.02 12.02 0 0 0 164.981 26.528 A 16.244 16.244 0 0 0 163 27.95 Q 159.1 31.2 156.2 35.6 L 156.2 70 Z M 9.5 70 L 0 70 L 0 0 L 41.5 0 L 41.5 8.2 L 9.5 8.2 L 9.5 29.6 L 36.2 29.6 L 36.2 37.4 L 9.5 37.4 L 9.5 70 Z M 302.4 52.1 L 302.4 27.7 L 293.4 27.7 L 293.4 19.9 L 302.6 19.9 L 304.5 3.5 L 311.4 3.5 L 311.4 19.9 L 325.8 19.9 L 325.8 27.7 L 311.4 27.7 L 311.4 52.8 A 21.559 21.559 0 0 0 311.568 55.596 Q 312.041 59.202 313.85 60.9 Q 316.3 63.2 319.7 63.2 Q 322.2 63.2 324.45 62.4 Q 326.7 61.6 328.6 60.5 L 331.1 67.7 A 18.546 18.546 0 0 1 329.482 68.556 Q 328.68 68.935 327.734 69.308 A 43.365 43.365 0 0 1 325.7 70.05 Q 322.3 71.2 318.6 71.2 Q 311.1 71.2 306.75 66.25 A 16.116 16.116 0 0 1 303.522 60.348 Q 302.759 57.917 302.515 54.98 A 34.777 34.777 0 0 1 302.4 52.1 Z M 274.3 22.2 L 274.3 18 L 282.5 18 L 282.5 57.4 A 12.15 12.15 0 0 0 282.602 59.036 Q 282.934 61.47 284.35 62.35 Q 286.2 63.5 288.4 63.5 L 286.5 70.5 A 17.722 17.722 0 0 1 282.235 70.028 Q 276.598 68.628 275.003 63.08 A 13.59 13.59 0 0 1 274.9 62.7 A 21.307 21.307 0 0 1 271.79 66.126 A 28.498 28.498 0 0 1 268.65 68.55 Q 264.7 71.2 258.6 71.2 Q 252.1 71.2 246.8 67.9 A 22.947 22.947 0 0 1 239.387 60.373 A 27.923 27.923 0 0 1 238.35 58.55 A 27.228 27.228 0 0 1 235.72 50.608 A 36.644 36.644 0 0 1 235.2 44.3 A 33.142 33.142 0 0 1 236.197 36.031 A 27.968 27.968 0 0 1 238.35 30.3 Q 241.5 24.1 247.05 20.45 A 22.297 22.297 0 0 1 258.245 16.844 A 27.388 27.388 0 0 1 259.8 16.8 A 22.584 22.584 0 0 1 264.594 17.29 A 18.703 18.703 0 0 1 267.95 18.35 A 26.002 26.002 0 0 1 272.237 20.644 A 22.103 22.103 0 0 1 274.3 22.2 Z M 116.3 70 L 107.3 70 L 107.3 18 L 116 18 L 116 29.3 Q 117.3 26 119.5 23.15 Q 121.7 20.3 125 18.55 A 14.817 14.817 0 0 1 129.68 17.026 A 19.459 19.459 0 0 1 132.7 16.8 Q 134.2 16.8 135.7 16.95 A 18.972 18.972 0 0 1 136.755 17.084 Q 137.255 17.162 137.682 17.262 A 8.817 8.817 0 0 1 138.2 17.4 L 135.5 26.7 A 9.763 9.763 0 0 0 133.355 26.088 Q 132.259 25.9 131 25.9 A 12.958 12.958 0 0 0 124.37 27.746 A 15.609 15.609 0 0 0 123.95 28 Q 120.622 30.086 118.478 34.442 A 22.927 22.927 0 0 0 118.45 34.5 Q 116.687 38.107 116.37 43.328 A 39.09 39.09 0 0 0 116.3 45.7 L 116.3 70 Z M 56.1 67.75 A 24.559 24.559 0 0 0 60.698 69.84 Q 64.753 71.2 69.4 71.2 Q 76.8 71.2 82.65 67.8 Q 88.5 64.4 91.9 58.25 A 26.255 26.255 0 0 0 94.553 51.109 A 34.184 34.184 0 0 0 95.3 43.8 A 34.542 34.542 0 0 0 94.815 37.891 A 25.795 25.795 0 0 0 91.85 29.45 Q 88.4 23.4 82.55 20.1 A 24.848 24.848 0 0 0 77.909 18.073 A 27.738 27.738 0 0 0 69.4 16.8 A 31.325 31.325 0 0 0 67.82 16.839 A 26.169 26.169 0 0 0 56.2 20.1 Q 50.3 23.4 46.9 29.5 A 26.023 26.023 0 0 0 44.151 37.09 A 35.006 35.006 0 0 0 43.5 44 A 34.82 34.82 0 0 0 43.765 48.354 A 27.451 27.451 0 0 0 46.85 58.15 Q 50.2 64.3 56.1 67.75 Z M 69.4 63.2 Q 77.3 63.2 81.7 57.85 A 18.802 18.802 0 0 0 85.519 49.76 A 27.105 27.105 0 0 0 86.1 44 Q 86.1 38.8 83.9 34.45 A 19.198 19.198 0 0 0 79.728 28.881 A 18.17 18.17 0 0 0 77.95 27.45 Q 74.2 24.8 69.4 24.8 A 19.249 19.249 0 0 0 64.174 25.472 A 14.037 14.037 0 0 0 57.1 30 A 17.878 17.878 0 0 0 53.426 37.374 Q 52.7 40.306 52.7 43.8 Q 52.7 49 54.9 53.45 A 19.437 19.437 0 0 0 58.43 58.49 A 17.627 17.627 0 0 0 60.85 60.55 Q 64.6 63.2 69.4 63.2 Z M 273.5 56.7 L 273.5 28.8 Q 270.8 26.9 267.55 25.75 Q 264.3 24.6 260.7 24.6 A 15.924 15.924 0 0 0 255.729 25.354 A 14.024 14.024 0 0 0 252.25 27.05 A 16.301 16.301 0 0 0 247.231 32.474 A 19.962 19.962 0 0 0 246.5 33.85 A 20.663 20.663 0 0 0 244.747 39.527 A 27.678 27.678 0 0 0 244.4 44 Q 244.4 49.6 246.5 53.95 A 17.602 17.602 0 0 0 249.606 58.496 A 15.697 15.697 0 0 0 252.3 60.75 Q 256 63.2 260.6 63.2 Q 264.4 63.2 267.8 61.35 Q 271.2 59.5 273.5 56.7 Z" vector-effect="non-scaling-stroke"/></g></svg>